<svg data-v-0dd9719b="" version="1.0" xmlns="http://www.w3.org/2000/svg" xmlns:xlink="http://www.w3.org/1999/xlink" width="680" height="500" viewBox="0 0 340.000000 250.000000" preserveAspectRatio="xMidYMid meet" color-interpolation-filters="sRGB" style="">   <g data-v-0dd9719b="" fill="#1B4A9C" class="icon-text-wrapper icon-svg-group iconsvg" transform="translate(63.285003662109375,71.94498443603516)"><g class="iconsvg-imagesvg" transform="translate(72.71499633789062,0)"><g><rect fill="#1B4A9C" fill-opacity="0" stroke-width="2" x="0" y="0" width="68" height="57.80002890001445" class="image-rect"></rect> <svg x="0" y="0" width="68" height="57.80002890001445" filtersec="colorsb9209807127" class="image-svg-svg primary" style="overflow: visible;"><svg xmlns="http://www.w3.org/2000/svg" viewBox="-207 344.8999938964844 180 153"><path fill="#1b4a9c" d="M-117 344.9l-90 153h180z"></path><path fill="#e9945b" d="M-94 383.9l-67.1 114H-27z"></path></svg></svg> <!----></g></g> <g transform="translate(0,64.80002975463867)"><g data-gra="path-name" fill-rule="" class="tp-name iconsvg-namesvg"><g transform="scale(1)"><g><path d="M3.46-33.03L0 0 24.16 0 25.74-14.98 24.39-17.32 26.23-19.62 27.63-33.03 3.46-33.03ZM21.51-19.62L6.75-19.62 7.65-28.39 22.41-28.39 21.51-19.62ZM19.93-4.63L5.17-4.63 6.25-14.98 21.02-14.98 19.93-4.63ZM48.87 0L52.38-33.03 47.61-33.03 46.58-22.99 30.11-22.99 27.63 0 48.87 0ZM34.29-18.31L46.13-18.31 44.64-4.63 32.85-4.63 34.29-18.31ZM65.07-22.95L71.05-22.95 58.09-9.9 57.06 0 52.38 0 54.76-22.95 59.44-22.95 58.77-16.43 65.07-22.95ZM79.6-6.34L87.39-22.95 91.98-22.95 77.44 8.23 72.76 8.28 76.63 0 76.41 0 71.05-22.95 75.78-22.95 79.6-6.34ZM95.49-33.03L118.75-33.03 116.59-12.91 111.69-12.91 116.19 0 111.42 0 106.96-12.91 98.05-12.91 96.7 0 91.98 0 95.49-33.03ZM98.55-17.55L112.41-17.55 113.58-28.39 99.67-28.39 98.55-17.55ZM121.19-22.95L118.75 0 138.91 0 140.49-4.63 124.02-4.63 124.47-9.31 140.98-9.31 142.42-22.95 121.19-22.95ZM137.12-13.59L124.92-13.59 125.41-18.27 137.61-18.27 137.12-13.59ZM142.42 0L144.85-22.95 166.09-22.95 164.34-6.71 164.07 0 159.97 0 159.88-2.29 155.11 0 142.42 0ZM149.08-18.27L147.6-4.63 155.56-4.63 159.66-6.75 160.83-18.27 149.08-18.27ZM168.52-22.95L166.09 0 186.25 0 187.83-4.63 171.36-4.63 172.75-18.27 189.27-18.27 189.76-22.95 168.52-22.95ZM193.27-33.03L189.76 0 194.53 0 196.42-18.31 208.26-18.31 206.32 0 211 0 213.43-22.99 196.92-22.99 198-33.03 193.27-33.03Z" transform="translate(0, 33.029998779296875)"></path></g> <!----> <!----> <!----> <!----> <!----> <!----> <!----></g></g> <!----></g></g><defs v-gra="od"></defs></svg>